<?xml version="1.0" encoding="UTF-8" standalone="no"?>
<!-- Created with Inkscape (http://www.inkscape.org/) -->

<svg
   xmlns:dc="http://purl.org/dc/elements/1.1/"
   xmlns:cc="http://creativecommons.org/ns#"
   xmlns:rdf="http://www.w3.org/1999/02/22-rdf-syntax-ns#"
   xmlns:svg="http://www.w3.org/2000/svg"
   xmlns="http://www.w3.org/2000/svg"
   xmlns:sodipodi="http://sodipodi.sourceforge.net/DTD/sodipodi-0.dtd"
   xmlns:inkscape="http://www.inkscape.org/namespaces/inkscape"
   width="700"
   height="500.00003"
   viewBox="0 0 185.20832 132.29167"
   version="1.1"
   id="svg8"
   sodipodi:docname="contour_multi.svg"
   inkscape:version="0.92.2 (5c3e80d, 2017-08-06)"
   inkscape:export-filename="C:\Users\HOME4400\Image_Processing_Python\multi-contour.png"
   inkscape:export-xdpi="96"
   inkscape:export-ydpi="96">
  <defs
     id="defs2" />
  <sodipodi:namedview
     id="base"
     pagecolor="#ffffff"
     bordercolor="#666666"
     borderopacity="1.0"
     inkscape:pageopacity="0.0"
     inkscape:pageshadow="2"
     inkscape:zoom="1"
     inkscape:cx="292.05328"
     inkscape:cy="278.55371"
     inkscape:document-units="px"
     inkscape:current-layer="layer1"
     showgrid="false"
     inkscape:window-width="1920"
     inkscape:window-height="1017"
     inkscape:window-x="1912"
     inkscape:window-y="-8"
     inkscape:window-maximized="1"
     units="px"
     inkscape:pagecheckerboard="true"
     borderlayer="false"
     inkscape:lockguides="false"
     showguides="false" />
  <metadata
     id="metadata5">
    <rdf:RDF>
      <cc:Work
         rdf:about="">
        <dc:format>image/svg+xml</dc:format>
        <dc:type
           rdf:resource="http://purl.org/dc/dcmitype/StillImage" />
        <dc:title></dc:title>
      </cc:Work>
    </rdf:RDF>
  </metadata>
  <g
     inkscape:label="Layer 1"
     inkscape:groupmode="layer"
     id="layer1"
     transform="translate(-119.44048,-30.148809)">
    <rect
       style="fill:#000000;fill-opacity:1;stroke:#000000;stroke-width:0;stroke-miterlimit:4;stroke-dasharray:none;stroke-opacity:1"
       id="rect815"
       width="185.20833"
       height="132.29167"
       x="119.44048"
       y="30.148809"
       inkscape:export-xdpi="96"
       inkscape:export-ydpi="96" />
    <rect
       style="fill:#ffffff;fill-opacity:1;stroke:#000000;stroke-width:0;stroke-miterlimit:4;stroke-dasharray:none;stroke-opacity:1"
       id="rect817"
       width="71.086952"
       height="43.026344"
       x="135.7399"
       y="41.66423" />
    <ellipse
       style="fill:#ffffff;fill-opacity:1;stroke:#000000;stroke-width:0;stroke-miterlimit:4;stroke-dasharray:none;stroke-opacity:1"
       id="path885"
       cx="157.31076"
       cy="111.66273"
       rx="30.06782"
       ry="16.83798" />
    <path
       style="fill:#ffffff;fill-opacity:1;fill-rule:evenodd;stroke:#000000;stroke-width:0.26458332px;stroke-linecap:butt;stroke-linejoin:miter;stroke-opacity:1"
       d="M 252.10211,77.843565 234.99686,46.03849 279.3636,50.849342 Z"
       id="path887"
       inkscape:connector-curvature="0" />
    <path
       style="fill:#ffffff;fill-opacity:1;fill-rule:evenodd;stroke:#000000;stroke-width:0.1084815px;stroke-linecap:butt;stroke-linejoin:miter;stroke-opacity:1"
       d="m 201.60895,115.86541 c -1.09205,-0.73862 0.53026,0.55307 0.34305,0.49117 -0.21187,-0.07 -0.3419,-0.31442 -0.15895,-0.0525 0.0167,0.0238 0.21128,0.29658 0.20582,0.29466 -0.0373,-0.0123 -0.19007,-0.13834 -0.22748,-0.15071 -0.0794,-0.0262 0.28546,0.32078 0.20583,0.29468 -0.0375,-0.0125 -0.19006,-0.13834 -0.22748,-0.15073 -0.0376,-0.0124 0.0457,0.0655 0.0686,0.0983 0.0477,0.0683 0.35935,0.48286 0.34304,0.49116 -0.0184,0.0103 -0.13988,-0.0622 -0.15895,-0.0525 -0.012,0.006 0.36303,0.51976 0.4116,0.58944 0.0233,0.0324 0.10643,0.11025 0.0686,0.0983 -0.0376,-0.0124 -0.19007,-0.13835 -0.2275,-0.15075 -0.0375,-0.0125 0.0457,0.0655 0.0685,0.0982 0.11439,0.16367 0.22871,0.32741 0.34304,0.49116 0.0232,0.0323 0.10641,0.11025 0.0686,0.0983 -0.0375,-0.0125 -0.19007,-0.13834 -0.22748,-0.15073 -0.008,-0.003 0.31069,0.44485 0.34303,0.49116 0.0253,0.036 0.28084,0.39505 0.27439,0.39295 -0.0375,-0.0125 -0.19006,-0.13833 -0.22748,-0.15072 -0.0382,-0.0126 0.31259,0.40559 0.27441,0.39297 -0.0375,-0.0125 -0.19009,-0.13836 -0.22751,-0.15075 -0.0435,-0.0144 0.2989,0.38054 0.2744,0.39295 -0.0184,0.0103 -0.13988,-0.0622 -0.15896,-0.0525 -0.0136,0.007 0.17491,0.25048 0.20586,0.2947 0.13718,0.19646 0.27438,0.39294 0.4116,0.58944 0.20582,0.29467 0.4116,0.58944 0.61741,0.88411 0.0233,0.0324 0.0457,0.0655 0.0686,0.0983 0.0232,0.0324 -0.001,0.0394 0.0685,0.0982 0.0698,0.0587 0.15777,0.0921 0.22749,0.15073 0.0809,0.068 0.1755,0.29875 0.2744,0.39296 0.0772,0.0729 0.21921,0.17577 0.29613,0.24894 0.11473,0.10891 0.15979,0.28387 0.27442,0.39298 0.45069,0.42898 0.20378,0.1168 0.36468,0.34719 0.0167,0.0238 0.19591,0.28649 0.20583,0.29468 0.0698,0.0587 0.15776,0.0921 0.22748,0.15072 0.0698,0.0587 0.0457,0.0655 0.0685,0.0982 0.1372,0.19648 0.27438,0.39294 0.41159,0.58943 0.0232,0.0324 -10e-4,0.0394 0.0686,0.0983 0.0698,0.0587 0.15776,0.0921 0.22748,0.15073 0.0918,0.0772 0.25132,0.41409 0.34305,0.49117 0.0698,0.0587 0.15778,0.0921 0.22748,0.15072 0.0607,0.0507 0.13352,0.22588 0.20584,0.29469 0.0772,0.0729 0.21921,0.17576 0.29612,0.24892 0.0721,0.0689 0.14529,0.24386 0.20584,0.29469 0.0698,0.0587 0.15776,0.0921 0.22749,0.15074 0.14802,0.12449 0.0578,0.17028 0.20584,0.29468 0.0698,0.0587 0.15777,0.0921 0.22751,0.15075 0.19748,0.16603 -0.0608,0.0299 0.13719,0.19648 0.0698,0.0587 0.15777,0.0921 0.22748,0.15072 0.14803,0.1245 0.0578,0.17027 0.20584,0.29468 0.60668,0.40194 -0.0987,-0.083 0.29614,0.24896 0.0698,0.0587 0.15777,0.0921 0.2275,0.15073 0.13965,0.11739 -0.002,0.0791 0.1372,0.19648 0.0698,0.0587 0.15161,0.10044 0.22747,0.15072 0.0232,0.0324 -0.001,0.0394 0.0686,0.0983 0.13965,0.11739 0.3154,0.18407 0.455,0.30146 0.0698,0.0587 0.0141,0.0464 0.0684,0.0981 0.75896,0.72247 -0.089,-0.11549 0.52363,0.3997 0.0698,0.0587 -0.001,0.0394 0.0684,0.0982 0.0698,0.0587 0.15776,0.0921 0.2275,0.15074 0.0698,0.0587 -0.001,0.0394 0.0686,0.0983 0.0698,0.0587 0.14936,0.0911 0.22749,0.15074 0.1104,0.0842 0.18576,0.16471 0.29613,0.24894 0.15612,0.11911 0.31539,0.18405 0.45501,0.30145 0.0698,0.0587 -0.001,0.0394 0.0685,0.0982 0.0698,0.0587 0.15777,0.0921 0.22749,0.15074 0.0698,0.0587 -0.001,0.0394 0.0686,0.0983 0.14802,0.12449 0.53446,0.32769 0.6825,0.45216 0.0698,0.0587 -0.001,0.0394 0.0684,0.0981 0.0134,0.0115 1.03023,0.68255 1.1375,0.75361 0.0758,0.0502 0.15777,0.0921 0.2275,0.15074 0.0698,0.0587 -10e-4,0.0394 0.0686,0.0983 0.0711,0.0599 0.83875,0.543 0.91,0.6029 0.0698,0.0587 -10e-4,0.0394 0.0686,0.0983 0.0711,0.0599 0.83874,0.54299 0.91001,0.60291 0.0698,0.0587 -0.001,0.0394 0.0684,0.0981 0.01,0.009 0.62732,0.41561 0.68249,0.45216 0.91001,0.6029 1.82003,1.20582 2.73003,1.80873 0.0758,0.0502 0.15162,0.10044 0.22749,0.15073 0.0758,0.0502 0.19008,0.13835 0.2275,0.15074 0.21184,0.07 -0.44779,-0.34943 0.15886,0.0525 0.0553,0.0366 0.67779,0.45105 0.68251,0.45218 0.0375,0.0125 -0.10641,-0.11025 -0.0686,-0.0983 0.008,0.003 1.03023,0.68256 1.13749,0.75361 0.75833,0.50243 1.51669,1.00486 2.27502,1.50727 0.0758,0.0502 0.15161,0.10044 0.22749,0.15073 0.0758,0.0502 0.15777,0.0921 0.22749,0.15074 0.0698,0.0587 -0.001,0.0394 0.0684,0.0981 0.01,0.009 0.62734,0.41563 0.6825,0.45218 0.0553,0.0366 0.67777,0.45102 0.68251,0.45217 0.21188,0.07 -0.4478,-0.34944 0.15896,0.0525 0.37915,0.25121 0.75832,0.50241 1.13748,0.75362 0.0758,0.0502 0.19009,0.13835 0.22749,0.15072 0.10597,0.035 -0.2432,-0.23145 -0.1372,-0.19647 0.0748,0.0246 0.38017,0.27671 0.45501,0.30144 0.0375,0.0125 -0.10642,-0.11025 -0.0686,-0.0983 0.0796,0.0264 0.60305,0.42592 0.68251,0.45217 0.0375,0.0125 -0.10643,-0.11025 -0.0684,-0.0981 0.0748,0.0246 0.38015,0.2767 0.455,0.30146 0.0375,0.0125 -0.10642,-0.11026 -0.0685,-0.0982 0.0373,0.0123 0.19007,0.13835 0.22749,0.15074 0.0375,0.0125 -0.10643,-0.11027 -0.0686,-0.0983 0.0375,0.0125 0.19006,0.13833 0.2275,0.15074 0.0373,0.0123 -0.10643,-0.11025 -0.0686,-0.0983 0.0375,0.0125 0.19007,0.13835 0.22751,0.15075 0.0375,0.0125 -0.10643,-0.11025 -0.0686,-0.0983 0.0375,0.0125 0.16989,0.12043 0.22748,0.15073 0.0815,0.0428 0.0774,0.01 0.15895,0.0525 0.0575,0.0302 0.19007,0.13835 0.22749,0.15073 0.0375,0.0125 -0.10642,-0.11025 -0.0686,-0.0983 0.0375,0.0125 0.19007,0.13835 0.22748,0.15072 0.0375,0.0125 -0.10642,-0.11025 -0.0686,-0.0983 0.0748,0.0246 0.38015,0.27669 0.45498,0.30143 0.10597,0.035 -0.24318,-0.23143 -0.1372,-0.19647 0.0375,0.0125 0.19009,0.13836 0.2275,0.15073 0.0375,0.0125 -0.10642,-0.11025 -0.0685,-0.0982 0.0375,0.0125 0.19006,0.13833 0.22748,0.15071 0.0375,0.0125 -0.10643,-0.11025 -0.0684,-0.0981 0.0375,0.0125 0.19008,0.13835 0.22749,0.15072 0.0375,0.0125 -0.10642,-0.11024 -0.0686,-0.0983 0.0375,0.0125 0.19009,0.13836 0.22749,0.15073 0.0375,0.0125 -0.10643,-0.11025 -0.0686,-0.0983 0.0375,0.0125 0.19007,0.13835 0.22749,0.15074 0.0375,0.0125 -0.10643,-0.11026 -0.0686,-0.0983 0.0375,0.0125 0.19007,0.13835 0.2275,0.15074 0.0375,0.0125 -0.10643,-0.11026 -0.0685,-0.0982 0.0375,0.0125 0.19008,0.13835 0.22748,0.15072 0.0375,0.0125 -0.10642,-0.11026 -0.0685,-0.0983 0.0375,0.0125 0.19007,0.13835 0.2275,0.15074 0.0375,0.0125 -0.10643,-0.11025 -0.0686,-0.0983 0.0375,0.0125 0.19008,0.13835 0.2275,0.15073 0.0376,0.0124 -0.10643,-0.11025 -0.0686,-0.0983 0.0375,0.0125 0.19009,0.13836 0.22751,0.15075 0.0375,0.0125 -0.10642,-0.11025 -0.0686,-0.0983 0.0375,0.0125 0.19007,0.13835 0.2275,0.15074 0.10597,0.0349 -0.24322,-0.23147 -0.13721,-0.19648 0.0748,0.0246 0.38008,0.27677 0.455,0.30146 0.0375,0.0125 -0.10641,-0.11025 -0.0686,-0.0983 0.0375,0.0125 0.19006,0.13834 0.22748,0.15073 0.0375,0.0125 -0.10642,-0.11025 -0.0686,-0.0983 0.0375,0.0125 0.19008,0.13835 0.22749,0.15074 0.0375,0.0125 -0.10642,-0.11026 -0.0686,-0.0983 0.0375,0.0125 0.19008,0.13836 0.22749,0.15073 0.0375,0.0125 -0.10642,-0.11025 -0.0686,-0.0983 0.0373,0.0123 0.19006,0.13833 0.22748,0.15072 0.0375,0.0125 -0.10641,-0.11025 -0.0686,-0.0983 0.0376,0.0124 0.19006,0.13833 0.22749,0.15073 0.0375,0.0125 -0.10642,-0.11025 -0.0686,-0.0983 0.0375,0.0125 0.19007,0.13834 0.22748,0.15072 0.0375,0.0125 -0.10642,-0.11026 -0.0684,-0.0982 0.0375,0.0125 0.19007,0.13835 0.2275,0.15074 0.0375,0.0125 -0.10643,-0.11025 -0.0686,-0.0983 0.0375,0.0125 0.19008,0.13835 0.2275,0.15074 0.0375,0.0125 -0.10642,-0.11026 -0.0686,-0.0983 0.0375,0.0125 0.19008,0.13835 0.22748,0.15072 0.0375,0.0125 -0.10642,-0.11026 -0.0686,-0.0983 0.0375,0.0125 0.19007,0.13835 0.22749,0.15073 0.0375,0.0125 -0.10642,-0.11025 -0.0686,-0.0983 0.0748,0.0246 0.38015,0.2767 0.45501,0.30147 0.0375,0.0125 -0.10642,-0.11026 -0.0686,-0.0983 0.0749,0.0247 0.38016,0.27672 0.45502,0.30147 0.0375,0.0125 -0.10642,-0.11025 -0.0685,-0.0982 0.0375,0.0125 0.16991,0.12044 0.22749,0.15074 0.0815,0.0428 0.0774,0.01 0.15894,0.0525 0.0575,0.0302 0.16989,0.12043 0.2275,0.15075 0.0815,0.0428 0.0774,0.01 0.15894,0.0525 0.0577,0.0304 0.19008,0.13836 0.2275,0.15075 0.0748,0.0246 -0.21213,-0.22121 -0.1372,-0.19649 0.0748,0.0246 0.38016,0.27671 0.455,0.30146 0.0373,0.0123 -0.10642,-0.11025 -0.0686,-0.0983 0.0375,0.0125 0.19007,0.13834 0.22751,0.15075 0.0375,0.0125 -0.10643,-0.11026 -0.0686,-0.0983 0.0376,0.0124 0.19008,0.13835 0.2275,0.15074 0.0375,0.0125 -0.10642,-0.11026 -0.0685,-0.0982 0.0748,0.0246 0.38015,0.27669 0.45503,0.30147 0.0375,0.0125 -0.10643,-0.11026 -0.0686,-0.0983 0.0375,0.0125 0.19007,0.13834 0.2275,0.15073 0.0375,0.0125 -0.10642,-0.11025 -0.0686,-0.0983 0.0375,0.0125 0.19007,0.13834 0.22749,0.15073 0.0748,0.0246 -0.21213,-0.22121 -0.13719,-0.19647 0.0375,0.0125 0.19008,0.13836 0.22748,0.15073 0.0375,0.0125 -0.10641,-0.11025 -0.0686,-0.0983 0.0376,0.0124 0.19007,0.13835 0.22748,0.15072 0.0375,0.0125 -0.10643,-0.11025 -0.0685,-0.0982 0.0375,0.0125 0.19008,0.13835 0.2275,0.15074 0.0375,0.0125 -0.10642,-0.11025 -0.0686,-0.0983 0.0748,0.0246 0.38015,0.27671 0.455,0.30146 0.0375,0.0125 -0.10642,-0.11026 -0.0686,-0.0983 0.0375,0.0125 0.19007,0.13835 0.2275,0.15075 0.0375,0.0125 -0.10642,-0.11026 -0.0686,-0.0983 0.0375,0.0125 0.19008,0.13835 0.22749,0.15074 0.0748,0.0246 -0.21212,-0.2212 -0.1372,-0.19649 0.60667,0.40194 -0.0529,-0.0175 0.15895,0.0525 0.0375,0.0125 0.19006,0.13832 0.22749,0.15072 0.0375,0.0125 -0.10643,-0.11025 -0.0685,-0.0981 0.0375,0.0125 0.19009,0.13835 0.22748,0.15071 0.0748,0.0246 -0.21211,-0.22118 -0.13719,-0.19646 0.60667,0.40194 -0.0529,-0.0175 0.15888,0.0525 0.0375,0.0125 0.19007,0.13834 0.22749,0.15073 0.0795,0.0262 -0.28546,-0.32079 -0.20584,-0.29469 0.0375,0.0125 0.19008,0.13836 0.2275,0.15075 0.0748,0.0246 -0.21213,-0.22121 -0.1372,-0.19649 0.0375,0.0125 0.19008,0.13835 0.22749,0.15074 0.0382,0.0126 -0.31266,-0.40553 -0.2744,-0.39296 0.0375,0.0125 0.19007,0.13834 0.22749,0.15073 0.0795,0.0262 -0.28544,-0.32078 -0.20583,-0.29469 0.0375,0.0125 0.19007,0.13835 0.2275,0.15075 0.0375,0.0125 -0.0457,-0.0655 -0.0686,-0.0983 -0.0322,-0.0464 -0.35016,-0.49355 -0.34303,-0.49116 0.0373,0.0123 0.19007,0.13834 0.22748,0.15072 0.0375,0.0125 -0.0457,-0.0655 -0.0686,-0.0983 -0.0232,-0.0324 -0.0457,-0.0655 -0.0686,-0.0983 -0.16008,-0.22921 -0.32016,-0.45842 -0.48022,-0.68765 -0.0313,-0.0441 -0.21956,-0.28771 -0.20583,-0.29467 0.0184,-0.0103 0.13987,0.0622 0.15895,0.0525 0.0307,-0.0163 -0.39876,-0.5096 -0.34302,-0.49115 0.0375,0.0125 0.19007,0.13835 0.22749,0.15073 0.0375,0.0125 -0.0457,-0.0655 -0.0686,-0.0983 -0.0232,-0.0323 -0.0457,-0.0655 -0.0686,-0.0983 -0.20584,-0.29468 -0.41161,-0.58944 -0.61744,-0.88412 -0.32016,-0.45843 -0.64031,-0.91687 -0.96045,-1.37531 -0.0232,-0.0324 -0.0458,-0.0655 -0.0684,-0.0981 -0.0232,-0.0324 10e-4,-0.0394 -0.0686,-0.0983 -0.39484,-0.33193 -0.11306,0.0131 -0.29614,-0.24896 -0.2744,-0.39296 -0.54882,-0.78587 -0.82323,-1.17882 -0.0232,-0.0323 -0.0457,-0.0655 -0.0686,-0.0983 -0.0232,-0.0324 0.001,-0.0394 -0.0686,-0.0983 -0.0698,-0.0587 -0.15777,-0.0921 -0.22749,-0.15073 -0.0134,-0.0115 -0.31068,-0.44484 -0.34302,-0.49115 -0.0232,-0.0323 10e-4,-0.0394 -0.0686,-0.0983 -0.0698,-0.0587 -0.15778,-0.0921 -0.2275,-0.15073 -0.13965,-0.1174 0.002,-0.0791 -0.1372,-0.19648 -0.0698,-0.0587 -0.15777,-0.0921 -0.22749,-0.15073 -0.19748,-0.16603 0.0608,-0.0299 -0.1372,-0.19648 -0.0698,-0.0587 -0.15777,-0.0921 -0.22749,-0.15074 -0.13966,-0.11739 0.002,-0.0792 -0.13721,-0.19648 -0.0698,-0.0587 -0.15776,-0.0921 -0.22748,-0.15073 -0.0698,-0.0587 -0.0143,-0.0466 -0.0686,-0.0983 -0.0772,-0.0729 -0.21921,-0.17576 -0.29613,-0.24894 -0.0547,-0.0516 0.001,-0.0394 -0.0685,-0.0982 -0.0698,-0.0587 -0.15776,-0.0921 -0.2275,-0.15075 -0.13965,-0.11739 0.002,-0.0791 -0.1372,-0.19648 -0.0698,-0.0587 -0.15777,-0.0921 -0.22749,-0.15073 -0.0698,-0.0587 0.001,-0.0394 -0.0686,-0.0983 -0.0698,-0.0587 -0.15777,-0.0921 -0.22749,-0.15074 -0.0698,-0.0587 -0.0144,-0.0465 -0.0686,-0.0983 -0.40317,-0.38382 -0.16247,-0.12404 -0.5236,-0.39967 -1.08956,-0.83171 0.24777,0.16758 -0.36469,-0.34722 -0.0698,-0.0587 -0.15777,-0.0921 -0.2275,-0.15073 -0.0698,-0.0587 0.001,-0.0394 -0.0685,-0.0982 -0.0698,-0.0587 -0.15764,-0.0919 -0.22748,-0.15072 -0.0698,-0.0587 0.001,-0.0394 -0.0686,-0.0983 -0.0698,-0.0587 -0.15777,-0.0921 -0.2275,-0.15074 -0.0698,-0.0587 0.001,-0.0394 -0.0686,-0.0983 -0.13967,-0.1174 -0.31541,-0.18408 -0.45502,-0.30147 -0.0698,-0.0587 0.001,-0.0394 -0.0684,-0.0981 -0.0698,-0.0587 -0.15162,-0.10044 -0.22751,-0.15075 -0.0232,-0.0324 0.001,-0.0394 -0.0685,-0.0982 -0.13958,-0.11745 -0.3154,-0.18406 -0.455,-0.30145 -0.0698,-0.0587 0.001,-0.0394 -0.0686,-0.0983 -0.0698,-0.0587 -0.14936,-0.0911 -0.22749,-0.15074 -0.11039,-0.0842 -0.18577,-0.16472 -0.29613,-0.24893 -0.0781,-0.0596 -0.15776,-0.0921 -0.22749,-0.15074 -0.0698,-0.0587 0.001,-0.0394 -0.0686,-0.0983 -0.13965,-0.11739 -0.3154,-0.18407 -0.455,-0.30145 -0.0698,-0.0587 0.001,-0.0394 -0.0686,-0.0983 -0.0712,-0.0598 -0.83878,-0.54302 -0.91001,-0.6029 -0.0698,-0.0587 0.001,-0.0394 -0.0686,-0.0983 -0.13958,-0.11746 -0.31541,-0.18407 -0.45498,-0.30143 -0.0698,-0.0587 0.001,-0.0394 -0.0686,-0.0983 -0.13965,-0.11739 -0.31541,-0.18407 -0.45501,-0.30145 -0.0698,-0.0587 0.001,-0.0394 -0.0686,-0.0983 -0.14802,-0.1245 -0.53445,-0.3277 -0.68251,-0.45217 -0.0698,-0.0587 0.001,-0.0394 -0.0686,-0.0983 -0.0712,-0.0598 -0.83875,-0.54299 -0.91,-0.6029 -0.0698,-0.0587 0.001,-0.0394 -0.0686,-0.0983 -0.14802,-0.1245 -0.53446,-0.32769 -0.6825,-0.45217 -0.0698,-0.0587 0.001,-0.0394 -0.0686,-0.0983 -0.60666,-0.40193 0.0988,0.083 -0.29612,-0.24894 -0.0712,-0.0599 -0.83876,-0.543 -0.91,-0.6029 -0.0698,-0.0587 0.001,-0.0394 -0.0684,-0.0981 -0.0698,-0.0587 -0.15162,-0.10044 -0.2275,-0.15074 -0.0758,-0.0502 -0.15162,-0.10044 -0.22749,-0.15073 -0.83416,-0.55266 -1.66834,-1.10533 -2.50251,-1.65798 -0.0552,-0.0366 -0.6726,-0.44363 -0.6825,-0.45218 -0.0698,-0.0587 10e-4,-0.0394 -0.0686,-0.0983 -0.0134,-0.0115 -1.03025,-0.68256 -1.13751,-0.75363 -0.0758,-0.0502 -0.15777,-0.0921 -0.22749,-0.15073 -0.0698,-0.0587 0.001,-0.0394 -0.0686,-0.0983 -0.01,-0.009 -0.62733,-0.41562 -0.68252,-0.45218 -1.28918,-0.85411 -2.57834,-1.70822 -3.86753,-2.56234 -0.0552,-0.0366 -0.67777,-0.45104 -0.6825,-0.45218 -0.0376,-0.0124 0.10643,0.11026 0.0686,0.0983 -0.0224,-0.007 -0.62878,-0.41115 -0.6825,-0.45217 -0.11041,-0.0843 -0.18578,-0.16474 -0.29613,-0.24894 -0.0796,-0.0608 -0.58006,-0.38431 -0.68251,-0.45219 -0.0758,-0.0502 -0.19007,-0.13835 -0.2275,-0.15074 -0.0375,-0.0125 0.10644,0.11026 0.0686,0.0983 -0.0795,-0.0263 -0.60306,-0.42593 -0.6825,-0.45216 -0.0375,-0.0125 0.10643,0.11025 0.0685,0.0981 -0.0748,-0.0246 -0.38016,-0.2767 -0.45499,-0.30144 -0.0375,-0.0125 0.10643,0.11026 0.0685,0.0982 -0.0748,-0.0246 -0.38015,-0.27669 -0.45499,-0.30144 0.18296,0.26195 0.0529,0.0175 -0.15895,-0.0525 -0.0375,-0.0125 0.10643,0.11025 0.0685,0.0982 -0.0376,-0.0124 -0.19008,-0.13835 -0.2275,-0.15074 -0.0376,-0.0124 0.10642,0.11025 0.0685,0.0981 -0.0748,-0.0246 -0.38017,-0.27671 -0.45501,-0.30145 -0.0376,-0.0124 0.10642,0.11025 0.0686,0.0983 -0.0748,-0.0246 -0.38015,-0.2767 -0.455,-0.30145 0.18296,0.26195 0.0529,0.0175 -0.15894,-0.0525 -0.0373,-0.0123 0.10643,0.11025 0.0686,0.0983 -0.0375,-0.0125 -0.19007,-0.13835 -0.2275,-0.15074 -0.0373,-0.0123 0.10642,0.11025 0.0686,0.0983 -0.0375,-0.0125 -0.19006,-0.13832 -0.22749,-0.15073 -0.0373,-0.0123 0.10642,0.11025 0.0684,0.0982 -0.0375,-0.0125 -0.19008,-0.13836 -0.2275,-0.15075 -0.0375,-0.0125 0.10642,0.11025 0.0686,0.0983 -0.0748,-0.0246 -0.38015,-0.2767 -0.45501,-0.30145 -0.0375,-0.0125 0.10642,0.11025 0.0686,0.0983 -0.0375,-0.0125 -0.19009,-0.13836 -0.22751,-0.15075 -0.0375,-0.0125 0.10643,0.11026 0.0686,0.0983 -0.0375,-0.0125 -0.19008,-0.13834 -0.2275,-0.15073 -0.0375,-0.0125 0.10642,0.11024 0.0686,0.0983 -0.0373,-0.0123 -0.19007,-0.13835 -0.22748,-0.15072 -0.0375,-0.0125 0.0821,0.0914 0.0686,0.0983 -0.0184,0.0103 -0.13987,-0.0622 -0.15894,-0.0525 -0.0133,0.007 0.0821,0.0914 0.0686,0.0983 -0.0184,0.0103 -0.13987,-0.0622 -0.15887,-0.0525 -0.0133,0.007 0.10643,0.11026 0.0686,0.0983 -0.0749,-0.0247 -0.38015,-0.2767 -0.455,-0.30145 -0.0749,-0.0247 0.21212,0.22119 0.1372,0.19647 -0.0748,-0.0246 -0.38017,-0.27671 -0.45503,-0.30147 -0.0748,-0.0246 0.21215,0.22122 0.13721,0.19649 -0.0375,-0.0125 -0.15162,-0.10044 -0.2275,-0.15074 0.0232,0.0324 0.10642,0.11025 0.0685,0.0982 -0.0376,-0.0124 -0.19008,-0.13835 -0.22748,-0.15072 -0.0375,-0.0125 0.10642,0.11025 0.0684,0.0981 -0.0375,-0.0125 -0.19006,-0.13833 -0.22749,-0.15073 -0.0375,-0.0125 0.0821,0.0914 0.0686,0.0983 -0.0184,0.0103 -0.13987,-0.0622 -0.15887,-0.0525 -0.0624,0.0314 0.33689,0.27037 -0.0903,0.0457 -0.0575,-0.0302 -0.19008,-0.13835 -0.22751,-0.15075 -0.0375,-0.0125 0.0821,0.0914 0.0684,0.0981 -0.24115,0.12217 -0.0766,-0.22719 -0.31779,-0.10498 -0.0134,0.007 0.10642,0.11025 0.0684,0.0981 -0.0373,-0.0123 -0.19007,-0.13834 -0.22749,-0.15073 -0.0375,-0.0125 0.10641,0.11024 0.0686,0.0983 -0.0373,-0.0123 -0.19007,-0.13835 -0.22748,-0.15072 -0.0748,-0.0246 0.21213,0.22119 0.13719,0.19646 -0.0373,-0.0123 -0.19007,-0.13834 -0.2275,-0.15074 -0.0375,-0.0125 0.10643,0.11027 0.0684,0.0981 -0.0375,-0.0125 -0.19007,-0.13834 -0.22748,-0.15071 -0.0375,-0.0125 0.0457,0.0654 0.0684,0.0981 -0.0758,-0.0502 -0.19008,-0.13835 -0.22749,-0.15073 -0.0375,-0.0125 0.10643,0.11026 0.0684,0.0981 -0.0375,-0.0125 -0.19005,-0.13833 -0.22748,-0.15072 -0.0375,-0.0125 0.10642,0.11024 0.0684,0.0981 -0.0375,-0.0125 -0.15162,-0.10045 -0.22748,-0.15072 0.0232,0.0324 0.10643,0.11025 0.0685,0.0981 -0.0375,-0.0125 -0.19008,-0.13835 -0.22749,-0.15072 -0.0748,-0.0246 0.21214,0.22121 0.13719,0.19647 -0.0375,-0.0125 -0.19007,-0.13835 -0.22749,-0.15074 -0.0375,-0.0125 0.10642,0.11026 0.0686,0.0983 -0.0375,-0.0125 -0.19008,-0.13836 -0.22748,-0.15073 -0.0375,-0.0125 0.10641,0.11025 0.0686,0.0983 -0.0375,-0.0125 -0.19007,-0.13835 -0.22748,-0.15072 -0.0375,-0.0125 0.10642,0.11025 0.0684,0.0981 -0.0375,-0.0125 -0.19007,-0.13835 -0.22749,-0.15074 -0.0749,-0.0247 0.21214,0.22121 0.1372,0.19648 -0.0748,-0.0246 -0.38014,-0.27669 -0.455,-0.30144 -0.0375,-0.0125 0.10641,0.11024 0.0686,0.0983 -0.2127,-0.0703 -0.24229,-0.23121 -0.45502,-0.30147 -0.18724,-0.0618 -0.27205,-0.0395 -0.40808,-0.0592 z"
       id="path889"
       inkscape:connector-curvature="0" />
    <path
       style="fill:#ffffff;fill-rule:evenodd;stroke:none;stroke-width:0.26458332px;stroke-linecap:butt;stroke-linejoin:miter;stroke-opacity:1"
       d="m 253.35174,98.077021 0.26459,33.072919 h 32.01458 c 0,0 -12.82839,-5.82036 -15.91536,-14.70707 0.84922,-9.50069 15.65077,-15.45543 10.09453,-19.688759 -5.55625,-4.233336 -5.82084,-6.08542 -12.17084,-6.08542 -6.35,0 -10.71563,-2.480469 -12.83229,1.223698 -1.02526,1.819007 -1.4552,1.32292 -1.45521,6.184632 z"
       id="path891"
       inkscape:connector-curvature="0"
       sodipodi:nodetypes="ccccsscc" />
  </g>
</svg>
